<svg width="72" height="77" viewBox="0 0 72 77" fill="none" xmlns="http://www.w3.org/2000/svg">
<rect x="14.5" y="0.5" width="42" height="42" rx="0.5" fill="#FFF3C9" stroke="#EEC535"/>
<rect x="15" y="1" width="41" height="6" fill="#FFE37B"/>
<path d="M10.2661 65.0703C10.7707 65.0703 11.1206 65.0215 11.3159 64.9238L11.3647 64.936L11.2427 68H2.09961V51.6792C2.31934 51.6955 2.56348 51.7077 2.83203 51.7158L3.68652 51.7402C4.25618 51.7565 4.87467 51.7646 5.54199 51.7646C7.4056 51.7646 9.24886 51.7321 11.0718 51.667C10.9823 52.3831 10.9375 53.3394 10.9375 54.5356C10.9375 54.6659 10.9456 54.7635 10.9619 54.8286L10.9375 54.8652C10.5143 54.7432 9.91211 54.6821 9.13086 54.6821H5.28564V57.7949H8.17871C9.07389 57.7949 9.611 57.7705 9.79004 57.7217L9.82666 60.7368C9.43604 60.6961 8.93148 60.6758 8.31299 60.6758H5.28564V65.0703H10.2661ZM17.6147 64.4722C17.6147 66.3032 17.6473 67.4792 17.7124 68H14.5264V55.2437H17.6147V56.3423C18.7297 55.4471 19.873 54.9995 21.0449 54.9995C22.4284 54.9995 23.4334 55.5977 24.0601 56.7939C24.6867 56.151 25.2075 55.7279 25.6226 55.5244C26.3143 55.1745 27.006 54.9995 27.6978 54.9995C28.3976 54.9995 28.9917 55.1175 29.48 55.3535C29.9683 55.5895 30.3711 55.9232 30.6885 56.3545C31.3314 57.2253 31.6528 58.4215 31.6528 59.9434V64.8018C31.6528 66.1771 31.6732 67.0031 31.7139 67.2798C31.7546 67.5565 31.8075 67.7355 31.8726 67.8169C31.9458 67.8983 32.0068 67.9715 32.0557 68.0366L32.0312 68.0854C31.3802 68.0285 30.9001 68 30.5908 68H29.6753C29.3742 68 29.0039 68.0122 28.5645 68.0366V61.4326C28.5645 59.5283 28.2715 58.3971 27.6855 58.0391C27.4902 57.9251 27.2583 57.8682 26.9897 57.8682C26.7293 57.8682 26.4974 57.9007 26.2939 57.9658C26.0905 58.0228 25.8993 58.1204 25.7202 58.2588C25.4191 58.4785 25.0773 58.9098 24.6948 59.5527C24.703 59.6178 24.707 59.6829 24.707 59.748C24.707 59.8132 24.707 60.8874 24.707 62.9707C24.707 65.054 24.7559 66.7305 24.8535 68C24.1618 68 23.5718 68 23.0835 68C22.6034 68 22.1436 68.0122 21.7041 68.0366V61.4204C21.7041 60.0939 21.6227 59.2313 21.46 58.8325C21.3053 58.4338 21.1385 58.1733 20.9595 58.0513C20.7804 57.9292 20.5607 57.8682 20.3003 57.8682C19.2261 57.8682 18.3309 58.3849 17.6147 59.4185V64.4722ZM38.3667 67.7437V71.3325C38.3667 72.0324 38.383 72.4881 38.4155 72.6997H35.376V55.2437H38.3667V56.0371C39.3514 55.3454 40.2954 54.9995 41.1987 54.9995C42.1021 54.9995 42.9036 55.1257 43.6035 55.3779C44.3034 55.6302 44.9178 56.0208 45.4468 56.5498C46.6105 57.6973 47.1924 59.333 47.1924 61.457C47.1924 62.8649 46.8628 64.1222 46.2036 65.229C45.6421 66.1649 44.8649 66.9136 43.8721 67.4751C42.9932 67.9715 42.041 68.2197 41.0156 68.2197C39.9902 68.2197 39.1073 68.061 38.3667 67.7437ZM38.3667 64.6675C38.9852 65.1883 39.7868 65.4487 40.7715 65.4487C42.3828 65.4487 43.4245 64.6715 43.8965 63.1172C44.0592 62.5882 44.1406 62.0226 44.1406 61.4204C44.1406 60.8101 44.0837 60.3258 43.9697 59.9678C43.8558 59.6016 43.7052 59.2882 43.5181 59.0278C43.339 58.7593 43.1356 58.5396 42.9077 58.3687C42.6799 58.1896 42.4479 58.0472 42.2119 57.9414C41.7969 57.7542 41.3696 57.6606 40.9302 57.6606C40.4907 57.6606 40.035 57.7624 39.563 57.9658C39.091 58.1693 38.6922 58.4419 38.3667 58.7837V64.6675ZM55.4321 65.3145C56.4819 65.3145 57.2021 65.0418 57.5928 64.4966H57.6904L57.7271 67.3286C57.3283 67.7274 56.5877 67.9919 55.5054 68.1221C55.2124 68.1628 54.8462 68.1831 54.4067 68.1831C53.9754 68.1831 53.5034 68.1017 52.9907 67.939C52.4862 67.7762 52.0549 67.5117 51.6968 67.1455C50.9562 66.3887 50.5859 65.2046 50.5859 63.5933V58.0513H48.7427C48.7345 57.8153 48.7305 57.5752 48.7305 57.3311V55.4512C48.7305 55.3128 48.7345 55.2437 48.7427 55.2437H50.5859V51.7646H53.5767V55.2437H56.9336V58.0513H53.5767V63.0317C53.5767 64.3094 53.9307 65.0378 54.6387 65.2168C54.8665 65.2819 55.131 65.3145 55.4321 65.3145ZM59.0454 72.248L59.8511 71.6011C61.0636 70.6164 62.0687 69.1637 62.8662 67.2432L63.4277 65.8882L58.7524 55.2437H62.1704L65.1001 62.6167L67.8223 55.2437H71.3379C70.9147 55.8296 70.3979 56.9201 69.7876 58.5151L67.9565 63.0439C65.507 68.8057 63.5864 72.2399 62.1948 73.3467L59.0454 72.248Z" fill="white"/>
<line x1="27.4142" y1="15" x2="44" y2="31.5858" stroke="#DC2323" stroke-width="2" stroke-linecap="round"/>
<line x1="43" y1="15.4142" x2="27.4142" y2="31" stroke="#DC2323" stroke-width="2" stroke-linecap="round"/>
</svg>
