<svg width="138" height="24" viewBox="0 0 138 24" fill="none" xmlns="http://www.w3.org/2000/svg">
<path d="M3.43018 21.0713C2.68962 20.3633 2.10368 19.5129 1.67236 18.52C1.24919 17.5272 1.0376 16.4408 1.0376 15.2607C1.0376 14.0726 1.23698 12.9495 1.63574 11.8916C2.03451 10.8337 2.60417 9.90186 3.34473 9.09619C4.08529 8.29053 4.98047 7.65169 6.03027 7.17969C7.08008 6.69954 8.25602 6.45947 9.55811 6.45947C11.8042 6.45947 13.6963 7.16748 15.2344 8.5835C16.8783 10.0972 17.7002 12.1398 17.7002 14.7114C17.7002 17.2017 16.8538 19.2728 15.1611 20.9248C14.1195 21.9421 12.8784 22.6419 11.438 23.0244C10.73 23.2116 9.8999 23.3052 8.94775 23.3052C8.00374 23.3052 7.03125 23.1099 6.03027 22.7192C5.03743 22.3286 4.17074 21.7793 3.43018 21.0713ZM4.43115 15.0898C4.43115 15.8467 4.55729 16.5425 4.80957 17.1772C5.06185 17.812 5.41178 18.3573 5.85938 18.813C6.81152 19.7733 8.0363 20.2534 9.53369 20.2534C10.9578 20.2534 12.1012 19.7936 12.9639 18.874C13.8428 17.9219 14.2822 16.6239 14.2822 14.98C14.2822 13.4338 13.8631 12.1439 13.0249 11.1104C12.1216 10.0036 10.8846 9.4502 9.31396 9.4502C7.79215 9.4502 6.58366 10.0117 5.68848 11.1348C4.85026 12.1846 4.43115 13.5029 4.43115 15.0898ZM23.7183 21.3887C23.7183 22.0885 23.7467 22.6257 23.8037 23H20.7275V5.54395H23.7183V16.2373L29.2969 10.2437H32.9224L28.1128 15.3096L30.8594 19.0571C31.4535 20.0011 31.901 20.6929 32.2021 21.1323L33.0078 22.2676C33.252 22.585 33.4554 22.8291 33.6182 23H31.6895C30.9733 23 30.3589 23.061 29.8462 23.1831L26.0376 17.6167L23.7183 20.0825V21.3887ZM34.6558 23C34.729 22.5036 34.7656 22.0641 34.7656 21.6816C34.7656 21.2992 34.7616 21.0387 34.7534 20.9004C34.7534 20.7539 34.7493 20.6115 34.7412 20.4731C34.7331 20.3348 34.7249 20.2046 34.7168 20.0825L34.6802 19.7773H38.2202C38.1958 20.0866 38.1836 20.3389 38.1836 20.5342L38.1592 21.0469C38.1592 21.2015 38.1592 21.4945 38.1592 21.9258C38.1592 22.349 38.1795 22.707 38.2202 23H34.6558Z" fill="white"/>
<path d="M45.2095 22C45.2583 21.7233 45.2827 21.4222 45.2827 21.0967V5.76465H47.7241L54.1938 15.9453V6.59473C54.1938 6.14714 54.1532 5.87044 54.0718 5.76465H57.3677C57.327 6.09017 57.3066 6.44824 57.3066 6.83887V22H54.7676L48.3955 12.2222V22H45.2095ZM60.4683 15.689C60.4683 14.7938 60.6188 13.9393 60.9199 13.1255C61.2292 12.3035 61.6686 11.5874 62.2383 10.9771C63.4834 9.65869 65.0988 8.99951 67.0845 8.99951C69.062 8.99951 70.6326 9.62207 71.7964 10.8672C72.9113 12.0553 73.4688 13.5975 73.4688 15.4937C73.4688 17.3898 72.895 18.9604 71.7476 20.2056C70.535 21.5239 68.9277 22.1831 66.9258 22.1831C64.8587 22.1831 63.2393 21.5361 62.0674 20.2422C61.0013 19.0622 60.4683 17.5444 60.4683 15.689ZM63.4346 15.6157C63.4346 16.1284 63.52 16.6248 63.6909 17.105C63.8618 17.5851 64.106 17.9961 64.4233 18.3379C65.0988 19.0785 65.9858 19.4487 67.0845 19.4487C68.1017 19.4487 68.9033 19.0866 69.4893 18.3623C70.0589 17.6624 70.3438 16.751 70.3438 15.6279C70.3438 14.4886 70.0508 13.569 69.4648 12.8691C68.8382 12.1204 67.9797 11.7461 66.8892 11.7461C65.7824 11.7461 64.9157 12.1449 64.2891 12.9424C63.7194 13.6748 63.4346 14.5659 63.4346 15.6157ZM81.6841 19.3145C82.7339 19.3145 83.4541 19.0418 83.8447 18.4966H83.9424L83.979 21.3286C83.5802 21.7274 82.8397 21.9919 81.7573 22.1221C81.4644 22.1628 81.0981 22.1831 80.6587 22.1831C80.2274 22.1831 79.7554 22.1017 79.2427 21.939C78.7381 21.7762 78.3068 21.5117 77.9487 21.1455C77.2082 20.3887 76.8379 19.2046 76.8379 17.5933V12.0513H74.9946C74.9865 11.8153 74.9824 11.5752 74.9824 11.3311V9.45117C74.9824 9.31283 74.9865 9.24365 74.9946 9.24365H76.8379V5.76465H79.8286V9.24365H83.1855V12.0513H79.8286V17.0317C79.8286 18.3094 80.1826 19.0378 80.8906 19.2168C81.1185 19.2819 81.383 19.3145 81.6841 19.3145ZM85.8589 15.7256C85.8589 14.7734 86.0216 13.8905 86.3472 13.0767C86.6727 12.2629 87.1325 11.5508 87.7266 10.9404C88.9961 9.64648 90.6562 8.99951 92.707 8.99951C94.4404 8.99951 95.832 9.57324 96.8818 10.7207C97.9154 11.8275 98.4321 13.2191 98.4321 14.8955C98.4321 15.5384 98.3833 15.9779 98.2856 16.2139C97.4718 16.4417 95.8158 16.5557 93.3174 16.5557H89.0205C89.2321 17.4264 89.7244 18.106 90.4976 18.5942C91.2707 19.0744 92.2757 19.3145 93.5127 19.3145C94.8066 19.3145 95.9175 19.0825 96.8452 18.6187C97.0894 18.4966 97.2725 18.3826 97.3945 18.2769C97.3783 18.6187 97.3579 18.9686 97.3335 19.3267L97.1992 21.231C96.5807 21.6541 95.5798 21.9471 94.1963 22.1099C93.7894 22.1587 93.3988 22.1831 93.0244 22.1831C90.9574 22.1831 89.2484 21.5809 87.8975 20.3765C86.5384 19.1639 85.8589 17.6136 85.8589 15.7256ZM95.1851 14.1875C94.8514 12.4378 93.8993 11.563 92.3286 11.563C91.0916 11.563 90.1517 12.096 89.5088 13.1621C89.3135 13.4876 89.1629 13.8457 89.0571 14.2363C89.2524 14.2445 89.4925 14.2526 89.7773 14.2607H90.6807C90.9818 14.2689 91.2707 14.2729 91.5474 14.2729H92.2432C92.6582 14.2729 93.0651 14.2689 93.4639 14.2607L94.4648 14.2241C94.7334 14.216 94.9735 14.2038 95.1851 14.1875ZM109.846 21.3164C108.812 21.8942 107.779 22.1831 106.745 22.1831C105.712 22.1831 104.808 22.0203 104.035 21.6948C103.262 21.3693 102.603 20.9217 102.058 20.3521C100.935 19.1802 100.373 17.6584 100.373 15.7866C100.373 13.8498 101.024 12.2384 102.326 10.9526C103.636 9.65055 105.313 8.99951 107.355 8.99951C107.982 8.99951 108.597 9.08089 109.199 9.24365V3.81152H112.189V16.8608C112.189 17.9432 112.238 18.6512 112.336 18.9849C112.442 19.3185 112.556 19.5627 112.678 19.7173C112.808 19.8719 112.971 20.0184 113.166 20.1567L110.871 22.1831C110.448 21.9552 110.106 21.6663 109.846 21.3164ZM107.319 19.3755C108.002 19.3755 108.629 19.2453 109.199 18.9849V12.2222C108.629 11.9862 108.011 11.8682 107.343 11.8682C106.676 11.8682 106.102 11.9577 105.622 12.1367C105.15 12.3158 104.743 12.564 104.401 12.8813C103.685 13.5487 103.327 14.4154 103.327 15.4814C103.327 16.6452 103.653 17.5729 104.304 18.2646C105.004 19.0052 106.009 19.3755 107.319 19.3755Z" fill="white"/>
<rect x="120.5" y="4.5" width="17" height="17" rx="0.5" fill="#FFF3C9" stroke="#EEC535"/>
<rect x="121.2" y="5.20001" width="15.6" height="2.4" fill="#FFE37B"/>
</svg>
