<svg width="21" height="18" viewBox="0 0 21 18" fill="none" xmlns="http://www.w3.org/2000/svg">
<rect x="0.5" y="0.5" width="17" height="17" rx="0.5" fill="#FFF3C9" stroke="#EEC535"/>
<rect x="1.2" y="1.20001" width="15.6" height="2.4" fill="#FFE37B"/>
<path d="M4.09766 11.3828C3.86068 11.1562 3.67318 10.8841 3.53516 10.5664C3.39974 10.2487 3.33203 9.90104 3.33203 9.52344C3.33203 9.14323 3.39583 8.78385 3.52344 8.44531C3.65104 8.10677 3.83333 7.80859 4.07031 7.55078C4.30729 7.29297 4.59375 7.08854 4.92969 6.9375C5.26562 6.78385 5.64193 6.70703 6.05859 6.70703C6.77734 6.70703 7.38281 6.93359 7.875 7.38672C8.40104 7.87109 8.66406 8.52474 8.66406 9.34766C8.66406 10.1445 8.39323 10.8073 7.85156 11.3359C7.51823 11.6615 7.12109 11.8854 6.66016 12.0078C6.43359 12.0677 6.16797 12.0977 5.86328 12.0977C5.5612 12.0977 5.25 12.0352 4.92969 11.9102C4.61198 11.7852 4.33464 11.6094 4.09766 11.3828ZM4.41797 9.46875C4.41797 9.71094 4.45833 9.93359 4.53906 10.1367C4.61979 10.3398 4.73177 10.5143 4.875 10.6602C5.17969 10.9674 5.57161 11.1211 6.05078 11.1211C6.50651 11.1211 6.8724 10.974 7.14844 10.6797C7.42969 10.375 7.57031 9.95964 7.57031 9.43359C7.57031 8.9388 7.4362 8.52604 7.16797 8.19531C6.87891 7.84115 6.48307 7.66406 5.98047 7.66406C5.49349 7.66406 5.10677 7.84375 4.82031 8.20312C4.55208 8.53906 4.41797 8.96094 4.41797 9.46875ZM10.668 12.0234C10.4883 12.0078 10.2591 12 9.98047 12H9.67188V6.78906L9.82812 6.79688C9.9375 6.80208 10.0195 6.80469 10.0742 6.80469H10.1875C10.4167 6.80469 10.5768 6.79427 10.668 6.77344V8.98047L12.25 6.78906C12.4167 6.79948 12.5573 6.80469 12.6719 6.80469H12.8867C13.1549 6.80469 13.3464 6.79427 13.4609 6.77344L11.9531 8.74219L13.4375 11.6875C13.5 11.8307 13.5586 11.9349 13.6133 12H13.375C12.8255 12 12.4831 12.0104 12.3477 12.0312C12.319 11.8568 12.2799 11.7044 12.2305 11.5742L11.2344 9.67578L10.668 10.418V12.0234Z" fill="#2B2B2B"/>
</svg>
